<mxfile host="app.diagrams.net" modified="2022-04-07T13:33:41.082Z" agent="5.0 (X11; Linux x86_64) AppleWebKit/537.36 (KHTML, like Gecko) Chrome/98.0.4758.102 Safari/537.36" etag="DEOUjR38baS4YFPCfwGA" version="17.4.0" type="github">
  <diagram id="N7P-d8ys1Z3ynuPxni_u" name="Page-1">
    <mxGraphModel dx="1422" dy="698" grid="1" gridSize="10" guides="1" tooltips="1" connect="1" arrows="1" fold="1" page="1" pageScale="1" pageWidth="1100" pageHeight="850" math="0" shadow="0">
      <root>
        <mxCell id="0" />
        <mxCell id="1" parent="0" />
        <mxCell id="kSx1AaX-8GTqj39W6Hqu-1" value="Keyboards" style="swimlane;fontStyle=0;childLayout=stackLayout;horizontal=1;startSize=30;horizontalStack=0;resizeParent=1;resizeParentMax=0;resizeLast=0;collapsible=1;marginBottom=0;" parent="1" vertex="1">
          <mxGeometry x="410" y="630" width="210" height="210" as="geometry">
            <mxRectangle x="410" y="630" width="90" height="30" as="alternateBounds" />
          </mxGeometry>
        </mxCell>
        <mxCell id="kSx1AaX-8GTqj39W6Hqu-2" value="Buttons *bt[200]" style="text;strokeColor=none;fillColor=none;align=left;verticalAlign=middle;spacingLeft=4;spacingRight=4;overflow=hidden;points=[[0,0.5],[1,0.5]];portConstraint=eastwest;rotatable=0;" parent="kSx1AaX-8GTqj39W6Hqu-1" vertex="1">
          <mxGeometry y="30" width="210" height="30" as="geometry" />
        </mxCell>
        <mxCell id="kSx1AaX-8GTqj39W6Hqu-3" value="Cpus *cp" style="text;strokeColor=none;fillColor=none;align=left;verticalAlign=middle;spacingLeft=4;spacingRight=4;overflow=hidden;points=[[0,0.5],[1,0.5]];portConstraint=eastwest;rotatable=0;" parent="kSx1AaX-8GTqj39W6Hqu-1" vertex="1">
          <mxGeometry y="60" width="210" height="30" as="geometry" />
        </mxCell>
        <mxCell id="kSx1AaX-8GTqj39W6Hqu-112" value="int CountBtn" style="text;strokeColor=none;fillColor=none;align=left;verticalAlign=middle;spacingLeft=4;spacingRight=4;overflow=hidden;points=[[0,0.5],[1,0.5]];portConstraint=eastwest;rotatable=0;" parent="kSx1AaX-8GTqj39W6Hqu-1" vertex="1">
          <mxGeometry y="90" width="210" height="30" as="geometry" />
        </mxCell>
        <mxCell id="kSx1AaX-8GTqj39W6Hqu-111" value="setButtons(Button *bt)" style="text;strokeColor=none;fillColor=none;align=left;verticalAlign=middle;spacingLeft=4;spacingRight=4;overflow=hidden;points=[[0,0.5],[1,0.5]];portConstraint=eastwest;rotatable=0;" parent="kSx1AaX-8GTqj39W6Hqu-1" vertex="1">
          <mxGeometry y="120" width="210" height="30" as="geometry" />
        </mxCell>
        <mxCell id="Q_cMGbu3-43dBNwL4J52-5" value="setCpus(Cpus *cp)" style="text;strokeColor=none;fillColor=none;align=left;verticalAlign=middle;spacingLeft=4;spacingRight=4;overflow=hidden;points=[[0,0.5],[1,0.5]];portConstraint=eastwest;rotatable=0;" vertex="1" parent="kSx1AaX-8GTqj39W6Hqu-1">
          <mxGeometry y="150" width="210" height="30" as="geometry" />
        </mxCell>
        <mxCell id="kSx1AaX-8GTqj39W6Hqu-4" value="transportInput(int x, Cpus *cp)" style="text;strokeColor=none;fillColor=none;align=left;verticalAlign=middle;spacingLeft=4;spacingRight=4;overflow=hidden;points=[[0,0.5],[1,0.5]];portConstraint=eastwest;rotatable=0;" parent="kSx1AaX-8GTqj39W6Hqu-1" vertex="1">
          <mxGeometry y="180" width="210" height="30" as="geometry" />
        </mxCell>
        <mxCell id="kSx1AaX-8GTqj39W6Hqu-5" value="Buttons" style="swimlane;fontStyle=0;childLayout=stackLayout;horizontal=1;startSize=30;horizontalStack=0;resizeParent=1;resizeParentMax=0;resizeLast=0;collapsible=1;marginBottom=0;" parent="1" vertex="1">
          <mxGeometry x="820" y="715" width="160" height="120" as="geometry">
            <mxRectangle x="820" y="715" width="70" height="30" as="alternateBounds" />
          </mxGeometry>
        </mxCell>
        <mxCell id="kSx1AaX-8GTqj39W6Hqu-6" value="Keyboards *kb" style="text;strokeColor=none;fillColor=none;align=left;verticalAlign=middle;spacingLeft=4;spacingRight=4;overflow=hidden;points=[[0,0.5],[1,0.5]];portConstraint=eastwest;rotatable=0;" parent="kSx1AaX-8GTqj39W6Hqu-5" vertex="1">
          <mxGeometry y="30" width="160" height="30" as="geometry" />
        </mxCell>
        <mxCell id="kSx1AaX-8GTqj39W6Hqu-109" value="virtual press()" style="text;strokeColor=none;fillColor=none;align=left;verticalAlign=middle;spacingLeft=4;spacingRight=4;overflow=hidden;points=[[0,0.5],[1,0.5]];portConstraint=eastwest;rotatable=0;" parent="kSx1AaX-8GTqj39W6Hqu-5" vertex="1">
          <mxGeometry y="60" width="160" height="30" as="geometry" />
        </mxCell>
        <mxCell id="kSx1AaX-8GTqj39W6Hqu-108" value="setKeyboard(Keyboard *kb)" style="text;strokeColor=none;fillColor=none;align=left;verticalAlign=middle;spacingLeft=4;spacingRight=4;overflow=hidden;points=[[0,0.5],[1,0.5]];portConstraint=eastwest;rotatable=0;" parent="kSx1AaX-8GTqj39W6Hqu-5" vertex="1">
          <mxGeometry y="90" width="160" height="30" as="geometry" />
        </mxCell>
        <mxCell id="kSx1AaX-8GTqj39W6Hqu-9" value="Displays" style="swimlane;fontStyle=0;childLayout=stackLayout;horizontal=1;startSize=30;horizontalStack=0;resizeParent=1;resizeParentMax=0;resizeLast=0;collapsible=1;marginBottom=0;" parent="1" vertex="1">
          <mxGeometry x="410" y="120" width="140" height="120" as="geometry">
            <mxRectangle x="410" y="120" width="80" height="30" as="alternateBounds" />
          </mxGeometry>
        </mxCell>
        <mxCell id="Q_cMGbu3-43dBNwL4J52-3" value="char disp[10]" style="text;strokeColor=none;fillColor=none;align=left;verticalAlign=middle;spacingLeft=4;spacingRight=4;overflow=hidden;points=[[0,0.5],[1,0.5]];portConstraint=eastwest;rotatable=0;" vertex="1" parent="kSx1AaX-8GTqj39W6Hqu-9">
          <mxGeometry y="30" width="140" height="30" as="geometry" />
        </mxCell>
        <mxCell id="kSx1AaX-8GTqj39W6Hqu-10" value="show()" style="text;strokeColor=none;fillColor=none;align=left;verticalAlign=middle;spacingLeft=4;spacingRight=4;overflow=hidden;points=[[0,0.5],[1,0.5]];portConstraint=eastwest;rotatable=0;" parent="kSx1AaX-8GTqj39W6Hqu-9" vertex="1">
          <mxGeometry y="60" width="140" height="30" as="geometry" />
        </mxCell>
        <mxCell id="kSx1AaX-8GTqj39W6Hqu-11" value="clear()" style="text;strokeColor=none;fillColor=none;align=left;verticalAlign=middle;spacingLeft=4;spacingRight=4;overflow=hidden;points=[[0,0.5],[1,0.5]];portConstraint=eastwest;rotatable=0;" parent="kSx1AaX-8GTqj39W6Hqu-9" vertex="1">
          <mxGeometry y="90" width="140" height="30" as="geometry" />
        </mxCell>
        <mxCell id="kSx1AaX-8GTqj39W6Hqu-13" value="Calculators" style="swimlane;fontStyle=0;childLayout=stackLayout;horizontal=1;startSize=30;horizontalStack=0;resizeParent=1;resizeParentMax=0;resizeLast=0;collapsible=1;marginBottom=0;" parent="1" vertex="1">
          <mxGeometry x="130" y="365" width="140" height="120" as="geometry">
            <mxRectangle x="130" y="365" width="90" height="30" as="alternateBounds" />
          </mxGeometry>
        </mxCell>
        <mxCell id="kSx1AaX-8GTqj39W6Hqu-14" value="Displays disp" style="text;strokeColor=none;fillColor=none;align=left;verticalAlign=middle;spacingLeft=4;spacingRight=4;overflow=hidden;points=[[0,0.5],[1,0.5]];portConstraint=eastwest;rotatable=0;" parent="kSx1AaX-8GTqj39W6Hqu-13" vertex="1">
          <mxGeometry y="30" width="140" height="30" as="geometry" />
        </mxCell>
        <mxCell id="kSx1AaX-8GTqj39W6Hqu-15" value="Cpus cp" style="text;strokeColor=none;fillColor=none;align=left;verticalAlign=middle;spacingLeft=4;spacingRight=4;overflow=hidden;points=[[0,0.5],[1,0.5]];portConstraint=eastwest;rotatable=0;" parent="kSx1AaX-8GTqj39W6Hqu-13" vertex="1">
          <mxGeometry y="60" width="140" height="30" as="geometry" />
        </mxCell>
        <mxCell id="kSx1AaX-8GTqj39W6Hqu-16" value="Keyboards kb" style="text;strokeColor=none;fillColor=none;align=left;verticalAlign=middle;spacingLeft=4;spacingRight=4;overflow=hidden;points=[[0,0.5],[1,0.5]];portConstraint=eastwest;rotatable=0;" parent="kSx1AaX-8GTqj39W6Hqu-13" vertex="1">
          <mxGeometry y="90" width="140" height="30" as="geometry" />
        </mxCell>
        <mxCell id="kSx1AaX-8GTqj39W6Hqu-17" value="Cpus" style="swimlane;fontStyle=0;childLayout=stackLayout;horizontal=1;startSize=30;horizontalStack=0;resizeParent=1;resizeParentMax=0;resizeLast=0;collapsible=1;marginBottom=0;" parent="1" vertex="1">
          <mxGeometry x="410" y="305" width="160" height="270" as="geometry">
            <mxRectangle x="410" y="305" width="60" height="30" as="alternateBounds" />
          </mxGeometry>
        </mxCell>
        <mxCell id="kSx1AaX-8GTqj39W6Hqu-18" value="char Disp[10]" style="text;strokeColor=none;fillColor=none;align=left;verticalAlign=middle;spacingLeft=4;spacingRight=4;overflow=hidden;points=[[0,0.5],[1,0.5]];portConstraint=eastwest;rotatable=0;" parent="kSx1AaX-8GTqj39W6Hqu-17" vertex="1">
          <mxGeometry y="30" width="160" height="30" as="geometry" />
        </mxCell>
        <mxCell id="kSx1AaX-8GTqj39W6Hqu-19" value="int Stack[17]" style="text;strokeColor=none;fillColor=none;align=left;verticalAlign=middle;spacingLeft=4;spacingRight=4;overflow=hidden;points=[[0,0.5],[1,0.5]];portConstraint=eastwest;rotatable=0;" parent="kSx1AaX-8GTqj39W6Hqu-17" vertex="1">
          <mxGeometry y="60" width="160" height="30" as="geometry" />
        </mxCell>
        <mxCell id="Q_cMGbu3-43dBNwL4J52-8" value="int top" style="text;strokeColor=none;fillColor=none;align=left;verticalAlign=middle;spacingLeft=4;spacingRight=4;overflow=hidden;points=[[0,0.5],[1,0.5]];portConstraint=eastwest;rotatable=0;" vertex="1" parent="kSx1AaX-8GTqj39W6Hqu-17">
          <mxGeometry y="90" width="160" height="30" as="geometry" />
        </mxCell>
        <mxCell id="kSx1AaX-8GTqj39W6Hqu-20" value="Displays disp" style="text;strokeColor=none;fillColor=none;align=left;verticalAlign=middle;spacingLeft=4;spacingRight=4;overflow=hidden;points=[[0,0.5],[1,0.5]];portConstraint=eastwest;rotatable=0;" parent="kSx1AaX-8GTqj39W6Hqu-17" vertex="1">
          <mxGeometry y="120" width="160" height="30" as="geometry" />
        </mxCell>
        <mxCell id="Q_cMGbu3-43dBNwL4J52-1" value="setDisplay(Display disp)" style="text;strokeColor=none;fillColor=none;align=left;verticalAlign=middle;spacingLeft=4;spacingRight=4;overflow=hidden;points=[[0,0.5],[1,0.5]];portConstraint=eastwest;rotatable=0;" vertex="1" parent="kSx1AaX-8GTqj39W6Hqu-17">
          <mxGeometry y="150" width="160" height="30" as="geometry" />
        </mxCell>
        <mxCell id="Q_cMGbu3-43dBNwL4J52-6" value="sendDisp()" style="text;strokeColor=none;fillColor=none;align=left;verticalAlign=middle;spacingLeft=4;spacingRight=4;overflow=hidden;points=[[0,0.5],[1,0.5]];portConstraint=eastwest;rotatable=0;" vertex="1" parent="kSx1AaX-8GTqj39W6Hqu-17">
          <mxGeometry y="180" width="160" height="30" as="geometry" />
        </mxCell>
        <mxCell id="Q_cMGbu3-43dBNwL4J52-2" value="receiveInput(int x, int *stack)" style="text;strokeColor=none;fillColor=none;align=left;verticalAlign=middle;spacingLeft=4;spacingRight=4;overflow=hidden;points=[[0,0.5],[1,0.5]];portConstraint=eastwest;rotatable=0;" vertex="1" parent="kSx1AaX-8GTqj39W6Hqu-17">
          <mxGeometry y="210" width="160" height="30" as="geometry" />
        </mxCell>
        <mxCell id="Q_cMGbu3-43dBNwL4J52-7" value="processInput(int *stack)" style="text;strokeColor=none;fillColor=none;align=left;verticalAlign=middle;spacingLeft=4;spacingRight=4;overflow=hidden;points=[[0,0.5],[1,0.5]];portConstraint=eastwest;rotatable=0;" vertex="1" parent="kSx1AaX-8GTqj39W6Hqu-17">
          <mxGeometry y="240" width="160" height="30" as="geometry" />
        </mxCell>
        <mxCell id="kSx1AaX-8GTqj39W6Hqu-21" value="ControlsBtn" style="swimlane;fontStyle=0;childLayout=stackLayout;horizontal=1;startSize=30;horizontalStack=0;resizeParent=1;resizeParentMax=0;resizeLast=0;collapsible=1;marginBottom=0;" parent="1" vertex="1">
          <mxGeometry x="950" y="530" width="150" height="120" as="geometry">
            <mxRectangle x="950" y="530" width="100" height="30" as="alternateBounds" />
          </mxGeometry>
        </mxCell>
        <mxCell id="kSx1AaX-8GTqj39W6Hqu-22" value="Controls ctrl" style="text;strokeColor=none;fillColor=none;align=left;verticalAlign=middle;spacingLeft=4;spacingRight=4;overflow=hidden;points=[[0,0.5],[1,0.5]];portConstraint=eastwest;rotatable=0;" parent="kSx1AaX-8GTqj39W6Hqu-21" vertex="1">
          <mxGeometry y="30" width="150" height="30" as="geometry" />
        </mxCell>
        <mxCell id="kSx1AaX-8GTqj39W6Hqu-23" value="ControlsBtn(Controls ctrl)" style="text;strokeColor=none;fillColor=none;align=left;verticalAlign=middle;spacingLeft=4;spacingRight=4;overflow=hidden;points=[[0,0.5],[1,0.5]];portConstraint=eastwest;rotatable=0;" parent="kSx1AaX-8GTqj39W6Hqu-21" vertex="1">
          <mxGeometry y="60" width="150" height="30" as="geometry" />
        </mxCell>
        <mxCell id="kSx1AaX-8GTqj39W6Hqu-24" value="press()" style="text;strokeColor=none;fillColor=none;align=left;verticalAlign=middle;spacingLeft=4;spacingRight=4;overflow=hidden;points=[[0,0.5],[1,0.5]];portConstraint=eastwest;rotatable=0;" parent="kSx1AaX-8GTqj39W6Hqu-21" vertex="1">
          <mxGeometry y="90" width="150" height="30" as="geometry" />
        </mxCell>
        <mxCell id="kSx1AaX-8GTqj39W6Hqu-25" value="OpsBtn" style="swimlane;fontStyle=0;childLayout=stackLayout;horizontal=1;startSize=30;horizontalStack=0;resizeParent=1;resizeParentMax=0;resizeLast=0;collapsible=1;marginBottom=0;" parent="1" vertex="1">
          <mxGeometry x="810" y="530" width="140" height="120" as="geometry">
            <mxRectangle x="810" y="530" width="70" height="30" as="alternateBounds" />
          </mxGeometry>
        </mxCell>
        <mxCell id="kSx1AaX-8GTqj39W6Hqu-26" value="Operations op" style="text;strokeColor=none;fillColor=none;align=left;verticalAlign=middle;spacingLeft=4;spacingRight=4;overflow=hidden;points=[[0,0.5],[1,0.5]];portConstraint=eastwest;rotatable=0;" parent="kSx1AaX-8GTqj39W6Hqu-25" vertex="1">
          <mxGeometry y="30" width="140" height="30" as="geometry" />
        </mxCell>
        <mxCell id="kSx1AaX-8GTqj39W6Hqu-27" value="OpsBtn(Operations op)" style="text;strokeColor=none;fillColor=none;align=left;verticalAlign=middle;spacingLeft=4;spacingRight=4;overflow=hidden;points=[[0,0.5],[1,0.5]];portConstraint=eastwest;rotatable=0;" parent="kSx1AaX-8GTqj39W6Hqu-25" vertex="1">
          <mxGeometry y="60" width="140" height="30" as="geometry" />
        </mxCell>
        <mxCell id="kSx1AaX-8GTqj39W6Hqu-28" value="press()" style="text;strokeColor=none;fillColor=none;align=left;verticalAlign=middle;spacingLeft=4;spacingRight=4;overflow=hidden;points=[[0,0.5],[1,0.5]];portConstraint=eastwest;rotatable=0;" parent="kSx1AaX-8GTqj39W6Hqu-25" vertex="1">
          <mxGeometry y="90" width="140" height="30" as="geometry" />
        </mxCell>
        <mxCell id="kSx1AaX-8GTqj39W6Hqu-29" value="DigitsBtn" style="swimlane;fontStyle=0;childLayout=stackLayout;horizontal=1;startSize=30;horizontalStack=0;resizeParent=1;resizeParentMax=0;resizeLast=0;collapsible=1;marginBottom=0;" parent="1" vertex="1">
          <mxGeometry x="670" y="530" width="140" height="120" as="geometry">
            <mxRectangle x="670" y="530" width="80" height="30" as="alternateBounds" />
          </mxGeometry>
        </mxCell>
        <mxCell id="kSx1AaX-8GTqj39W6Hqu-30" value="Digits dg" style="text;strokeColor=none;fillColor=none;align=left;verticalAlign=middle;spacingLeft=4;spacingRight=4;overflow=hidden;points=[[0,0.5],[1,0.5]];portConstraint=eastwest;rotatable=0;" parent="kSx1AaX-8GTqj39W6Hqu-29" vertex="1">
          <mxGeometry y="30" width="140" height="30" as="geometry" />
        </mxCell>
        <mxCell id="kSx1AaX-8GTqj39W6Hqu-31" value="DigitsBtn(Digits dg)" style="text;strokeColor=none;fillColor=none;align=left;verticalAlign=middle;spacingLeft=4;spacingRight=4;overflow=hidden;points=[[0,0.5],[1,0.5]];portConstraint=eastwest;rotatable=0;" parent="kSx1AaX-8GTqj39W6Hqu-29" vertex="1">
          <mxGeometry y="60" width="140" height="30" as="geometry" />
        </mxCell>
        <mxCell id="kSx1AaX-8GTqj39W6Hqu-32" value="press()" style="text;strokeColor=none;fillColor=none;align=left;verticalAlign=middle;spacingLeft=4;spacingRight=4;overflow=hidden;points=[[0,0.5],[1,0.5]];portConstraint=eastwest;rotatable=0;" parent="kSx1AaX-8GTqj39W6Hqu-29" vertex="1">
          <mxGeometry y="90" width="140" height="30" as="geometry" />
        </mxCell>
        <mxCell id="kSx1AaX-8GTqj39W6Hqu-37" value="Operations" style="swimlane;fontStyle=0;childLayout=stackLayout;horizontal=1;startSize=30;horizontalStack=0;resizeParent=1;resizeParentMax=0;resizeLast=0;collapsible=1;marginBottom=0;" parent="1" vertex="1">
          <mxGeometry x="810" y="120" width="140" height="150" as="geometry">
            <mxRectangle x="810" y="120" width="90" height="30" as="alternateBounds" />
          </mxGeometry>
        </mxCell>
        <mxCell id="kSx1AaX-8GTqj39W6Hqu-38" value="PLUS = 10," style="text;strokeColor=none;fillColor=none;align=left;verticalAlign=middle;spacingLeft=4;spacingRight=4;overflow=hidden;points=[[0,0.5],[1,0.5]];portConstraint=eastwest;rotatable=0;fontSize=10;" parent="kSx1AaX-8GTqj39W6Hqu-37" vertex="1">
          <mxGeometry y="30" width="140" height="20" as="geometry" />
        </mxCell>
        <mxCell id="kSx1AaX-8GTqj39W6Hqu-89" value="MINUS," style="text;strokeColor=none;fillColor=none;align=left;verticalAlign=middle;spacingLeft=4;spacingRight=4;overflow=hidden;points=[[0,0.5],[1,0.5]];portConstraint=eastwest;rotatable=0;fontSize=10;" parent="kSx1AaX-8GTqj39W6Hqu-37" vertex="1">
          <mxGeometry y="50" width="140" height="20" as="geometry" />
        </mxCell>
        <mxCell id="kSx1AaX-8GTqj39W6Hqu-88" value="DIV," style="text;strokeColor=none;fillColor=none;align=left;verticalAlign=middle;spacingLeft=4;spacingRight=4;overflow=hidden;points=[[0,0.5],[1,0.5]];portConstraint=eastwest;rotatable=0;fontSize=10;" parent="kSx1AaX-8GTqj39W6Hqu-37" vertex="1">
          <mxGeometry y="70" width="140" height="20" as="geometry" />
        </mxCell>
        <mxCell id="kSx1AaX-8GTqj39W6Hqu-87" value="MULT," style="text;strokeColor=none;fillColor=none;align=left;verticalAlign=middle;spacingLeft=4;spacingRight=4;overflow=hidden;points=[[0,0.5],[1,0.5]];portConstraint=eastwest;rotatable=0;fontSize=10;" parent="kSx1AaX-8GTqj39W6Hqu-37" vertex="1">
          <mxGeometry y="90" width="140" height="20" as="geometry" />
        </mxCell>
        <mxCell id="kSx1AaX-8GTqj39W6Hqu-86" value="SQRT," style="text;strokeColor=none;fillColor=none;align=left;verticalAlign=middle;spacingLeft=4;spacingRight=4;overflow=hidden;points=[[0,0.5],[1,0.5]];portConstraint=eastwest;rotatable=0;fontSize=10;" parent="kSx1AaX-8GTqj39W6Hqu-37" vertex="1">
          <mxGeometry y="110" width="140" height="20" as="geometry" />
        </mxCell>
        <mxCell id="kSx1AaX-8GTqj39W6Hqu-85" value="PERCENT" style="text;strokeColor=none;fillColor=none;align=left;verticalAlign=middle;spacingLeft=4;spacingRight=4;overflow=hidden;points=[[0,0.5],[1,0.5]];portConstraint=eastwest;rotatable=0;fontSize=10;" parent="kSx1AaX-8GTqj39W6Hqu-37" vertex="1">
          <mxGeometry y="130" width="140" height="20" as="geometry" />
        </mxCell>
        <mxCell id="kSx1AaX-8GTqj39W6Hqu-50" value="" style="endArrow=diamond;html=1;rounded=0;endFill=1;startArrow=open;startFill=0;entryX=0.5;entryY=0;entryDx=0;entryDy=0;exitX=0.543;exitY=1.05;exitDx=0;exitDy=0;exitPerimeter=0;" parent="1" source="kSx1AaX-8GTqj39W6Hqu-107" target="kSx1AaX-8GTqj39W6Hqu-29" edge="1">
          <mxGeometry width="50" height="50" relative="1" as="geometry">
            <mxPoint x="740" y="360" as="sourcePoint" />
            <mxPoint x="720" y="430" as="targetPoint" />
          </mxGeometry>
        </mxCell>
        <mxCell id="kSx1AaX-8GTqj39W6Hqu-51" value="" style="endArrow=open;html=1;rounded=0;endFill=0;exitX=0.5;exitY=0;exitDx=0;exitDy=0;startArrow=diamond;startFill=1;entryX=0.5;entryY=1;entryDx=0;entryDy=0;" parent="1" source="kSx1AaX-8GTqj39W6Hqu-25" target="kSx1AaX-8GTqj39W6Hqu-37" edge="1">
          <mxGeometry width="50" height="50" relative="1" as="geometry">
            <mxPoint x="885.0699999999999" y="516.04" as="sourcePoint" />
            <mxPoint x="890" y="290" as="targetPoint" />
          </mxGeometry>
        </mxCell>
        <mxCell id="kSx1AaX-8GTqj39W6Hqu-52" value="" style="endArrow=open;html=1;rounded=0;endFill=0;entryX=0.5;entryY=1;entryDx=0;entryDy=0;exitX=0.5;exitY=0;exitDx=0;exitDy=0;startArrow=diamond;startFill=1;" parent="1" target="kSx1AaX-8GTqj39W6Hqu-90" edge="1" source="kSx1AaX-8GTqj39W6Hqu-21">
          <mxGeometry width="50" height="50" relative="1" as="geometry">
            <mxPoint x="1032.48" y="520.27" as="sourcePoint" />
            <mxPoint x="1029.3799999999999" y="241.32000000000005" as="targetPoint" />
          </mxGeometry>
        </mxCell>
        <mxCell id="kSx1AaX-8GTqj39W6Hqu-57" value="" style="endArrow=classic;html=1;rounded=0;entryX=0.495;entryY=1.096;entryDx=0;entryDy=0;exitX=0.25;exitY=0;exitDx=0;exitDy=0;entryPerimeter=0;" parent="1" source="kSx1AaX-8GTqj39W6Hqu-5" target="kSx1AaX-8GTqj39W6Hqu-32" edge="1">
          <mxGeometry width="50" height="50" relative="1" as="geometry">
            <mxPoint x="830.3000000000002" y="660" as="sourcePoint" />
            <mxPoint x="740" y="708.6800000000001" as="targetPoint" />
          </mxGeometry>
        </mxCell>
        <mxCell id="kSx1AaX-8GTqj39W6Hqu-58" value="" style="endArrow=classic;html=1;rounded=0;entryX=0.45;entryY=1.096;entryDx=0;entryDy=0;exitX=0.5;exitY=0;exitDx=0;exitDy=0;entryPerimeter=0;" parent="1" source="kSx1AaX-8GTqj39W6Hqu-5" target="kSx1AaX-8GTqj39W6Hqu-28" edge="1">
          <mxGeometry width="50" height="50" relative="1" as="geometry">
            <mxPoint x="932.85" y="687.12" as="sourcePoint" />
            <mxPoint x="827.1500000000002" y="630.0000000000001" as="targetPoint" />
          </mxGeometry>
        </mxCell>
        <mxCell id="kSx1AaX-8GTqj39W6Hqu-60" value="" style="endArrow=classic;html=1;rounded=0;entryX=0.51;entryY=1.096;entryDx=0;entryDy=0;exitX=0.75;exitY=0;exitDx=0;exitDy=0;entryPerimeter=0;" parent="1" source="kSx1AaX-8GTqj39W6Hqu-5" target="kSx1AaX-8GTqj39W6Hqu-24" edge="1">
          <mxGeometry width="50" height="50" relative="1" as="geometry">
            <mxPoint x="987" y="710" as="sourcePoint" />
            <mxPoint x="980" y="652.8800000000001" as="targetPoint" />
          </mxGeometry>
        </mxCell>
        <mxCell id="kSx1AaX-8GTqj39W6Hqu-62" value="" style="endArrow=diamond;html=1;rounded=0;entryX=0;entryY=0.5;entryDx=0;entryDy=0;exitX=1;exitY=0.5;exitDx=0;exitDy=0;startArrow=diamond;startFill=0;endFill=0;" parent="1" source="kSx1AaX-8GTqj39W6Hqu-111" target="kSx1AaX-8GTqj39W6Hqu-5" edge="1">
          <mxGeometry width="50" height="50" relative="1" as="geometry">
            <mxPoint x="650" y="785" as="sourcePoint" />
            <mxPoint x="817.76" y="769.21" as="targetPoint" />
          </mxGeometry>
        </mxCell>
        <mxCell id="kSx1AaX-8GTqj39W6Hqu-63" value="" style="endArrow=diamond;html=1;rounded=0;endFill=0;startArrow=open;startFill=0;entryX=0.5;entryY=0;entryDx=0;entryDy=0;exitX=0.5;exitY=1;exitDx=0;exitDy=0;" parent="1" source="kSx1AaX-8GTqj39W6Hqu-17" target="kSx1AaX-8GTqj39W6Hqu-1" edge="1">
          <mxGeometry width="50" height="50" relative="1" as="geometry">
            <mxPoint x="480" y="530" as="sourcePoint" />
            <mxPoint x="476" y="680" as="targetPoint" />
          </mxGeometry>
        </mxCell>
        <mxCell id="kSx1AaX-8GTqj39W6Hqu-64" value="" style="endArrow=diamond;html=1;rounded=0;endFill=0;startArrow=open;startFill=0;entryX=0.5;entryY=0;entryDx=0;entryDy=0;exitX=0.499;exitY=1.079;exitDx=0;exitDy=0;exitPerimeter=0;" parent="1" source="kSx1AaX-8GTqj39W6Hqu-12" target="kSx1AaX-8GTqj39W6Hqu-17" edge="1">
          <mxGeometry width="50" height="50" relative="1" as="geometry">
            <mxPoint x="480" y="200" as="sourcePoint" />
            <mxPoint x="478" y="330" as="targetPoint" />
          </mxGeometry>
        </mxCell>
        <mxCell id="kSx1AaX-8GTqj39W6Hqu-65" value="" style="endArrow=diamond;html=1;rounded=0;endFill=0;startArrow=open;startFill=0;entryX=0.5;entryY=0;entryDx=0;entryDy=0;exitX=-0.012;exitY=0.289;exitDx=0;exitDy=0;exitPerimeter=0;" parent="1" source="kSx1AaX-8GTqj39W6Hqu-11" target="kSx1AaX-8GTqj39W6Hqu-13" edge="1">
          <mxGeometry width="50" height="50" relative="1" as="geometry">
            <mxPoint x="299.9999999999999" y="153.69" as="sourcePoint" />
            <mxPoint x="300.14" y="366.32" as="targetPoint" />
          </mxGeometry>
        </mxCell>
        <mxCell id="kSx1AaX-8GTqj39W6Hqu-67" value="" style="endArrow=diamond;html=1;rounded=0;endFill=0;startArrow=open;startFill=0;entryX=1;entryY=0.5;entryDx=0;entryDy=0;exitX=0;exitY=0.5;exitDx=0;exitDy=0;" parent="1" source="kSx1AaX-8GTqj39W6Hqu-19" target="kSx1AaX-8GTqj39W6Hqu-15" edge="1">
          <mxGeometry width="50" height="50" relative="1" as="geometry">
            <mxPoint x="418.31999999999994" y="108.67000000000007" as="sourcePoint" />
            <mxPoint x="210" y="375" as="targetPoint" />
          </mxGeometry>
        </mxCell>
        <mxCell id="kSx1AaX-8GTqj39W6Hqu-68" value="" style="endArrow=diamond;html=1;rounded=0;endFill=0;startArrow=open;startFill=0;exitX=0;exitY=0.5;exitDx=0;exitDy=0;entryX=0.439;entryY=1.035;entryDx=0;entryDy=0;entryPerimeter=0;" parent="1" source="kSx1AaX-8GTqj39W6Hqu-3" target="kSx1AaX-8GTqj39W6Hqu-16" edge="1">
          <mxGeometry width="50" height="50" relative="1" as="geometry">
            <mxPoint x="409.99999999999994" y="433.6700000000001" as="sourcePoint" />
            <mxPoint x="190" y="540" as="targetPoint" />
          </mxGeometry>
        </mxCell>
        <mxCell id="kSx1AaX-8GTqj39W6Hqu-74" value="" style="endArrow=open;html=1;rounded=0;dashed=1;exitX=1;exitY=0.25;exitDx=0;exitDy=0;endFill=0;entryX=0.25;entryY=1;entryDx=0;entryDy=0;" parent="1" source="kSx1AaX-8GTqj39W6Hqu-17" target="kSx1AaX-8GTqj39W6Hqu-97" edge="1">
          <mxGeometry width="50" height="50" relative="1" as="geometry">
            <mxPoint x="770" y="390" as="sourcePoint" />
            <mxPoint x="690" y="360" as="targetPoint" />
            <Array as="points">
              <mxPoint x="705" y="373" />
            </Array>
          </mxGeometry>
        </mxCell>
        <mxCell id="kSx1AaX-8GTqj39W6Hqu-76" value="" style="endArrow=open;html=1;rounded=0;dashed=1;endFill=0;entryX=0.25;entryY=1;entryDx=0;entryDy=0;exitX=1;exitY=0.5;exitDx=0;exitDy=0;" parent="1" target="kSx1AaX-8GTqj39W6Hqu-37" edge="1" source="kSx1AaX-8GTqj39W6Hqu-17">
          <mxGeometry width="50" height="50" relative="1" as="geometry">
            <mxPoint x="490" y="400" as="sourcePoint" />
            <mxPoint x="851" y="270" as="targetPoint" />
            <Array as="points">
              <mxPoint x="850" y="440" />
            </Array>
          </mxGeometry>
        </mxCell>
        <mxCell id="kSx1AaX-8GTqj39W6Hqu-77" value="" style="endArrow=open;html=1;rounded=0;dashed=1;exitX=1;exitY=0.75;exitDx=0;exitDy=0;endFill=0;entryX=0.25;entryY=1;entryDx=0;entryDy=0;" parent="1" target="kSx1AaX-8GTqj39W6Hqu-90" edge="1" source="kSx1AaX-8GTqj39W6Hqu-17">
          <mxGeometry width="50" height="50" relative="1" as="geometry">
            <mxPoint x="550" y="463.16" as="sourcePoint" />
            <mxPoint x="990" y="290" as="targetPoint" />
            <Array as="points">
              <mxPoint x="990" y="500" />
            </Array>
          </mxGeometry>
        </mxCell>
        <mxCell id="kSx1AaX-8GTqj39W6Hqu-90" value="Controls" style="swimlane;fontStyle=0;childLayout=stackLayout;horizontal=1;startSize=30;horizontalStack=0;resizeParent=1;resizeParentMax=0;resizeLast=0;collapsible=1;marginBottom=0;" parent="1" vertex="1">
          <mxGeometry x="950" y="120" width="140" height="150" as="geometry">
            <mxRectangle x="950" y="120" width="80" height="30" as="alternateBounds" />
          </mxGeometry>
        </mxCell>
        <mxCell id="kSx1AaX-8GTqj39W6Hqu-91" value="M_PLUS = 16," style="text;strokeColor=none;fillColor=none;align=left;verticalAlign=middle;spacingLeft=4;spacingRight=4;overflow=hidden;points=[[0,0.5],[1,0.5]];portConstraint=eastwest;rotatable=0;fontSize=10;" parent="kSx1AaX-8GTqj39W6Hqu-90" vertex="1">
          <mxGeometry y="30" width="140" height="20" as="geometry" />
        </mxCell>
        <mxCell id="kSx1AaX-8GTqj39W6Hqu-92" value="M_MINUS," style="text;strokeColor=none;fillColor=none;align=left;verticalAlign=middle;spacingLeft=4;spacingRight=4;overflow=hidden;points=[[0,0.5],[1,0.5]];portConstraint=eastwest;rotatable=0;fontSize=10;" parent="kSx1AaX-8GTqj39W6Hqu-90" vertex="1">
          <mxGeometry y="50" width="140" height="20" as="geometry" />
        </mxCell>
        <mxCell id="kSx1AaX-8GTqj39W6Hqu-93" value="MRC," style="text;strokeColor=none;fillColor=none;align=left;verticalAlign=middle;spacingLeft=4;spacingRight=4;overflow=hidden;points=[[0,0.5],[1,0.5]];portConstraint=eastwest;rotatable=0;fontSize=10;" parent="kSx1AaX-8GTqj39W6Hqu-90" vertex="1">
          <mxGeometry y="70" width="140" height="20" as="geometry" />
        </mxCell>
        <mxCell id="kSx1AaX-8GTqj39W6Hqu-94" value="ON/CE," style="text;strokeColor=none;fillColor=none;align=left;verticalAlign=middle;spacingLeft=4;spacingRight=4;overflow=hidden;points=[[0,0.5],[1,0.5]];portConstraint=eastwest;rotatable=0;fontSize=10;" parent="kSx1AaX-8GTqj39W6Hqu-90" vertex="1">
          <mxGeometry y="90" width="140" height="20" as="geometry" />
        </mxCell>
        <mxCell id="kSx1AaX-8GTqj39W6Hqu-95" value="OFF," style="text;strokeColor=none;fillColor=none;align=left;verticalAlign=middle;spacingLeft=4;spacingRight=4;overflow=hidden;points=[[0,0.5],[1,0.5]];portConstraint=eastwest;rotatable=0;fontSize=10;" parent="kSx1AaX-8GTqj39W6Hqu-90" vertex="1">
          <mxGeometry y="110" width="140" height="20" as="geometry" />
        </mxCell>
        <mxCell id="kSx1AaX-8GTqj39W6Hqu-96" value="EQUALS" style="text;strokeColor=none;fillColor=none;align=left;verticalAlign=middle;spacingLeft=4;spacingRight=4;overflow=hidden;points=[[0,0.5],[1,0.5]];portConstraint=eastwest;rotatable=0;fontSize=10;" parent="kSx1AaX-8GTqj39W6Hqu-90" vertex="1">
          <mxGeometry y="130" width="140" height="20" as="geometry" />
        </mxCell>
        <mxCell id="kSx1AaX-8GTqj39W6Hqu-97" value="Digits" style="swimlane;fontStyle=0;childLayout=stackLayout;horizontal=1;startSize=30;horizontalStack=0;resizeParent=1;resizeParentMax=0;resizeLast=0;collapsible=1;marginBottom=0;" parent="1" vertex="1">
          <mxGeometry x="670" y="120" width="140" height="230" as="geometry">
            <mxRectangle x="670" y="120" width="90" height="30" as="alternateBounds" />
          </mxGeometry>
        </mxCell>
        <mxCell id="kSx1AaX-8GTqj39W6Hqu-98" value="ZERO = 0," style="text;strokeColor=none;fillColor=none;align=left;verticalAlign=middle;spacingLeft=4;spacingRight=4;overflow=hidden;points=[[0,0.5],[1,0.5]];portConstraint=eastwest;rotatable=0;fontSize=10;" parent="kSx1AaX-8GTqj39W6Hqu-97" vertex="1">
          <mxGeometry y="30" width="140" height="20" as="geometry" />
        </mxCell>
        <mxCell id="kSx1AaX-8GTqj39W6Hqu-99" value="ONE," style="text;strokeColor=none;fillColor=none;align=left;verticalAlign=middle;spacingLeft=4;spacingRight=4;overflow=hidden;points=[[0,0.5],[1,0.5]];portConstraint=eastwest;rotatable=0;fontSize=10;" parent="kSx1AaX-8GTqj39W6Hqu-97" vertex="1">
          <mxGeometry y="50" width="140" height="20" as="geometry" />
        </mxCell>
        <mxCell id="kSx1AaX-8GTqj39W6Hqu-100" value="TWO," style="text;strokeColor=none;fillColor=none;align=left;verticalAlign=middle;spacingLeft=4;spacingRight=4;overflow=hidden;points=[[0,0.5],[1,0.5]];portConstraint=eastwest;rotatable=0;fontSize=10;" parent="kSx1AaX-8GTqj39W6Hqu-97" vertex="1">
          <mxGeometry y="70" width="140" height="20" as="geometry" />
        </mxCell>
        <mxCell id="kSx1AaX-8GTqj39W6Hqu-101" value="THREE," style="text;strokeColor=none;fillColor=none;align=left;verticalAlign=middle;spacingLeft=4;spacingRight=4;overflow=hidden;points=[[0,0.5],[1,0.5]];portConstraint=eastwest;rotatable=0;fontSize=10;" parent="kSx1AaX-8GTqj39W6Hqu-97" vertex="1">
          <mxGeometry y="90" width="140" height="20" as="geometry" />
        </mxCell>
        <mxCell id="kSx1AaX-8GTqj39W6Hqu-102" value="FOUR," style="text;strokeColor=none;fillColor=none;align=left;verticalAlign=middle;spacingLeft=4;spacingRight=4;overflow=hidden;points=[[0,0.5],[1,0.5]];portConstraint=eastwest;rotatable=0;fontSize=10;" parent="kSx1AaX-8GTqj39W6Hqu-97" vertex="1">
          <mxGeometry y="110" width="140" height="20" as="geometry" />
        </mxCell>
        <mxCell id="kSx1AaX-8GTqj39W6Hqu-103" value="FIVE," style="text;strokeColor=none;fillColor=none;align=left;verticalAlign=middle;spacingLeft=4;spacingRight=4;overflow=hidden;points=[[0,0.5],[1,0.5]];portConstraint=eastwest;rotatable=0;fontSize=10;" parent="kSx1AaX-8GTqj39W6Hqu-97" vertex="1">
          <mxGeometry y="130" width="140" height="20" as="geometry" />
        </mxCell>
        <mxCell id="kSx1AaX-8GTqj39W6Hqu-106" value="SIX," style="text;strokeColor=none;fillColor=none;align=left;verticalAlign=middle;spacingLeft=4;spacingRight=4;overflow=hidden;points=[[0,0.5],[1,0.5]];portConstraint=eastwest;rotatable=0;fontSize=10;" parent="kSx1AaX-8GTqj39W6Hqu-97" vertex="1">
          <mxGeometry y="150" width="140" height="20" as="geometry" />
        </mxCell>
        <mxCell id="kSx1AaX-8GTqj39W6Hqu-105" value="SEVEN," style="text;strokeColor=none;fillColor=none;align=left;verticalAlign=middle;spacingLeft=4;spacingRight=4;overflow=hidden;points=[[0,0.5],[1,0.5]];portConstraint=eastwest;rotatable=0;fontSize=10;" parent="kSx1AaX-8GTqj39W6Hqu-97" vertex="1">
          <mxGeometry y="170" width="140" height="20" as="geometry" />
        </mxCell>
        <mxCell id="kSx1AaX-8GTqj39W6Hqu-104" value="EIGHT," style="text;strokeColor=none;fillColor=none;align=left;verticalAlign=middle;spacingLeft=4;spacingRight=4;overflow=hidden;points=[[0,0.5],[1,0.5]];portConstraint=eastwest;rotatable=0;fontSize=10;" parent="kSx1AaX-8GTqj39W6Hqu-97" vertex="1">
          <mxGeometry y="190" width="140" height="20" as="geometry" />
        </mxCell>
        <mxCell id="kSx1AaX-8GTqj39W6Hqu-107" value="NINE" style="text;strokeColor=none;fillColor=none;align=left;verticalAlign=middle;spacingLeft=4;spacingRight=4;overflow=hidden;points=[[0,0.5],[1,0.5]];portConstraint=eastwest;rotatable=0;fontSize=10;" parent="kSx1AaX-8GTqj39W6Hqu-97" vertex="1">
          <mxGeometry y="210" width="140" height="20" as="geometry" />
        </mxCell>
      </root>
    </mxGraphModel>
  </diagram>
</mxfile>
